<?xml version="1.0" standalone="no"?>
<!DOCTYPE svg PUBLIC "-//W3C//DTD SVG 1.1//EN"
"http://www.w3.org/Graphics/SVG/1.1/DTD/svg11.dtd">

<svg width="1038" height="965" view_box="0 0 1038 965"
xmlns="http://www.w3.org/2000/svg"
xmlns:link="http://www.w3.org/1999/xlink">\n\n<desc>Généré par Mocodo 2.3.7 le Tue, 15 Jun 2021 02:45:47</desc>

<rect id="frame" x="0" y="0" width="1038" height="965" fill="#f7f7f7" stroke="none" stroke-width="0"/>

<!-- Association contient -->
<path d="M464 339 C 536.333333333 305.666666667 596.0 305.666666667 643 339" fill="none" stroke="#5aae61" stroke-width="2"/>
<text x="552" y="332.0" fill="#762a83" font-family="Verdana" font-size="12">0,N</text>
<path d="M464 339 C 535.666666667 372.333333333 595.333333333 372.333333333 643 339" fill="none" stroke="#5aae61" stroke-width="2"/>
<text x="552" y="355.0" fill="#762a83" font-family="Verdana" font-size="12">1,1</text>
<g id="association-contient">
	<path d="M 661 314 a 14 14 90 0 1 14 14 V 339 h -64 V 328 a 14 14 90 0 1 14 -14" fill="#a6dba0" stroke="#a6dba0" stroke-width="0"/>
	<path d="M 675 339.0 v 11 a 14 14 90 0 1 -14 14 H 625 a 14 14 90 0 1 -14 -14 V 339.0 H 64" fill="#d9f0d3" stroke="#d9f0d3" stroke-width="0"/>
	<rect x="611" y="314" width="64" height="50" fill="none" rx="14" stroke="#5aae61" stroke-width="2"/>
	<line x1="611" y1="339" x2="675" y2="339" stroke="#5aae61" stroke-width="1"/>
	<text x="618" y="331.7" fill="#000000" font-family="Verdana" font-size="12">contient</text>
</g>

<!-- Association rédige -->
<line x1="776" y1="111" x2="776" y2="339" stroke="#5aae61" stroke-width="2"/>
<text x="781.0" y="230" fill="#762a83" font-family="Verdana" font-size="12">0,N</text>
<line x1="776" y1="567" x2="776" y2="339" stroke="#5aae61" stroke-width="2"/>
<text x="781.0" y="449" fill="#762a83" font-family="Verdana" font-size="12">0,1</text>
<g id="association-rédige">
	<path d="M 789 314 a 14 14 90 0 1 14 14 V 339 h -54 V 328 a 14 14 90 0 1 14 -14" fill="#a6dba0" stroke="#a6dba0" stroke-width="0"/>
	<path d="M 803 339.0 v 11 a 14 14 90 0 1 -14 14 H 763 a 14 14 90 0 1 -14 -14 V 339.0 H 54" fill="#d9f0d3" stroke="#d9f0d3" stroke-width="0"/>
	<rect x="749" y="314" width="54" height="50" fill="none" rx="14" stroke="#5aae61" stroke-width="2"/>
	<line x1="749" y1="339" x2="803" y2="339" stroke="#5aae61" stroke-width="1"/>
	<text x="756" y="331.7" fill="#000000" font-family="Verdana" font-size="12">rédige</text>
</g>

<!-- Association écrit -->
<line x1="776" y1="111" x2="643" y2="111" stroke="#5aae61" stroke-width="2"/>
<text x="687" y="128.0" fill="#762a83" font-family="Verdana" font-size="12">0,N</text>
<path d="M464 339 C 504.344988595 223.124818997 564.011655261 147.124818997 643 111" fill="none" stroke="#5aae61" stroke-width="2"/>
<text x="552" y="196.124288268" fill="#762a83" font-family="Verdana" font-size="12">1,1</text>
<g id="association-écrit">
	<path d="M 650 86 a 14 14 90 0 1 14 14 V 111 h -42 V 100 a 14 14 90 0 1 14 -14" fill="#a6dba0" stroke="#a6dba0" stroke-width="0"/>
	<path d="M 664 111.0 v 11 a 14 14 90 0 1 -14 14 H 636 a 14 14 90 0 1 -14 -14 V 111.0 H 42" fill="#d9f0d3" stroke="#d9f0d3" stroke-width="0"/>
	<rect x="622" y="86" width="42" height="50" fill="none" rx="14" stroke="#5aae61" stroke-width="2"/>
	<line x1="622" y1="111" x2="664" y2="111" stroke="#5aae61" stroke-width="1"/>
	<text x="629" y="103.7" fill="#000000" font-family="Verdana" font-size="12">écrit</text>
</g>

<!-- Association informe -->
<line x1="776" y1="567" x2="933" y2="567" stroke="#5aae61" stroke-width="2"/>
<text x="838" y="584.0" fill="#762a83" font-family="Verdana" font-size="12">0,N</text>
<line x1="933" y1="829" x2="933" y2="567" stroke="#5aae61" stroke-width="2"/>
<text x="938.0" y="779" fill="#762a83" font-family="Verdana" font-size="12">1,1</text>
<g id="association-informe">
	<path d="M 950 542 a 14 14 90 0 1 14 14 V 567 h -62 V 556 a 14 14 90 0 1 14 -14" fill="#a6dba0" stroke="#a6dba0" stroke-width="0"/>
	<path d="M 964 567.0 v 11 a 14 14 90 0 1 -14 14 H 916 a 14 14 90 0 1 -14 -14 V 567.0 H 62" fill="#d9f0d3" stroke="#d9f0d3" stroke-width="0"/>
	<rect x="902" y="542" width="62" height="50" fill="none" rx="14" stroke="#5aae61" stroke-width="2"/>
	<line x1="902" y1="567" x2="964" y2="567" stroke="#5aae61" stroke-width="1"/>
	<text x="909" y="559.7" fill="#000000" font-family="Verdana" font-size="12">informe</text>
</g>

<!-- Association renseigne -->
<line x1="776" y1="111" x2="933" y2="111" stroke="#5aae61" stroke-width="2"/>
<text x="843" y="128.0" fill="#762a83" font-family="Verdana" font-size="12">0,N</text>
<line x1="933" y1="339" x2="933" y2="111" stroke="#5aae61" stroke-width="2"/>
<text x="938.0" y="289" fill="#762a83" font-family="Verdana" font-size="12">1,1</text>
<g id="association-renseigne">
	<path d="M 956 86 a 14 14 90 0 1 14 14 V 111 h -74 V 100 a 14 14 90 0 1 14 -14" fill="#a6dba0" stroke="#a6dba0" stroke-width="0"/>
	<path d="M 970 111.0 v 11 a 14 14 90 0 1 -14 14 H 910 a 14 14 90 0 1 -14 -14 V 111.0 H 74" fill="#d9f0d3" stroke="#d9f0d3" stroke-width="0"/>
	<rect x="896" y="86" width="74" height="50" fill="none" rx="14" stroke="#5aae61" stroke-width="2"/>
	<line x1="896" y1="111" x2="970" y2="111" stroke="#5aae61" stroke-width="1"/>
	<text x="903" y="103.7" fill="#000000" font-family="Verdana" font-size="12">renseigne</text>
</g>

<!-- Association classe -->
<line x1="273" y1="111" x2="273" y2="339" stroke="#5aae61" stroke-width="2"/>
<text x="278.0" y="179" fill="#762a83" font-family="Verdana" font-size="12">0,N</text>
<line x1="464" y1="339" x2="273" y2="339" stroke="#5aae61" stroke-width="2"/>
<text x="354" y="356.0" fill="#762a83" font-family="Verdana" font-size="12">0,N</text>
<g id="association-classe">
	<path d="M 285 314 a 14 14 90 0 1 14 14 V 339 h -52 V 328 a 14 14 90 0 1 14 -14" fill="#a6dba0" stroke="#a6dba0" stroke-width="0"/>
	<path d="M 299 339.0 v 11 a 14 14 90 0 1 -14 14 H 261 a 14 14 90 0 1 -14 -14 V 339.0 H 52" fill="#d9f0d3" stroke="#d9f0d3" stroke-width="0"/>
	<rect x="247" y="314" width="52" height="50" fill="none" rx="14" stroke="#5aae61" stroke-width="2"/>
	<line x1="247" y1="339" x2="299" y2="339" stroke="#5aae61" stroke-width="1"/>
	<text x="254" y="331.7" fill="#000000" font-family="Verdana" font-size="12">classe</text>
	<text x="254" y="356.8" fill="#000000" font-family="Verdana" font-size="12">ordre</text>
</g>

<!-- Association répond -->
<path d="M776 567 C 817.333333333 643.0 817.333333333 730.333333333 776 829" fill="none" stroke="#5aae61" stroke-width="2"/>
<text x="781.0" y="694" fill="#762a83" font-family="Verdana" font-size="12">1,1</text>
<path d="M776 567 C 733.333333333 643.0 733.333333333 730.333333333 776 829" fill="none" stroke="#5aae61" stroke-width="2"/>
<text x="749.0" y="694" fill="#762a83" font-family="Verdana" font-size="12">0,N</text>
<g id="association-répond">
	<path d="M 791 804 a 14 14 90 0 1 14 14 V 829 h -58 V 818 a 14 14 90 0 1 14 -14" fill="#a6dba0" stroke="#a6dba0" stroke-width="0"/>
	<path d="M 805 829.0 v 11 a 14 14 90 0 1 -14 14 H 761 a 14 14 90 0 1 -14 -14 V 829.0 H 58" fill="#d9f0d3" stroke="#d9f0d3" stroke-width="0"/>
	<rect x="747" y="804" width="58" height="50" fill="none" rx="14" stroke="#5aae61" stroke-width="2"/>
	<line x1="747" y1="829" x2="805" y2="829" stroke="#5aae61" stroke-width="1"/>
	<text x="754" y="821.7" fill="#000000" font-family="Verdana" font-size="12">répond</text>
</g>

<!-- Association décrit -->
<line x1="83" y1="829" x2="83" y2="567" stroke="#5aae61" stroke-width="2"/>
<text x="88.0" y="779" fill="#762a83" font-family="Verdana" font-size="12">1,1</text>
<line x1="83" y1="339" x2="83" y2="567" stroke="#5aae61" stroke-width="2"/>
<text x="88.0" y="407" fill="#762a83" font-family="Verdana" font-size="12">0,N</text>
<g id="association-décrit">
	<path d="M 94 542 a 14 14 90 0 1 14 14 V 567 h -50 V 556 a 14 14 90 0 1 14 -14" fill="#a6dba0" stroke="#a6dba0" stroke-width="0"/>
	<path d="M 108 567.0 v 11 a 14 14 90 0 1 -14 14 H 72 a 14 14 90 0 1 -14 -14 V 567.0 H 50" fill="#d9f0d3" stroke="#d9f0d3" stroke-width="0"/>
	<rect x="58" y="542" width="50" height="50" fill="none" rx="14" stroke="#5aae61" stroke-width="2"/>
	<line x1="58" y1="567" x2="108" y2="567" stroke="#5aae61" stroke-width="1"/>
	<text x="65" y="559.7" fill="#000000" font-family="Verdana" font-size="12">décrit</text>
</g>

<!-- Association organise -->
<line x1="273" y1="111" x2="83" y2="111" stroke="#5aae61" stroke-width="2"/>
<text x="180" y="128.0" fill="#762a83" font-family="Verdana" font-size="12">1,N</text>
<line x1="83" y1="339" x2="83" y2="111" stroke="#5aae61" stroke-width="2"/>
<text x="88.0" y="280" fill="#762a83" font-family="Verdana" font-size="12">1,1</text>
<g id="association-organise">
	<path d="M 102 86 a 14 14 90 0 1 14 14 V 111 h -66 V 100 a 14 14 90 0 1 14 -14" fill="#a6dba0" stroke="#a6dba0" stroke-width="0"/>
	<path d="M 116 111.0 v 11 a 14 14 90 0 1 -14 14 H 64 a 14 14 90 0 1 -14 -14 V 111.0 H 66" fill="#d9f0d3" stroke="#d9f0d3" stroke-width="0"/>
	<rect x="50" y="86" width="66" height="50" fill="none" rx="14" stroke="#5aae61" stroke-width="2"/>
	<line x1="50" y1="111" x2="116" y2="111" stroke="#5aae61" stroke-width="1"/>
	<text x="57" y="103.7" fill="#000000" font-family="Verdana" font-size="12">organise</text>
</g>

<!-- Association commente -->
<path d="M464 339 C 504.392982247 456.2100556 564.059648914 532.2100556 643 567" fill="none" stroke="#5aae61" stroke-width="2"/>
<text x="552" y="491.875711732" fill="#762a83" font-family="Verdana" font-size="12">0,N</text>
<line x1="776" y1="567" x2="643" y2="567" stroke="#5aae61" stroke-width="2"/>
<text x="693" y="584.0" fill="#762a83" font-family="Verdana" font-size="12">1,1</text>
<g id="association-commente">
	<path d="M 669 542 a 14 14 90 0 1 14 14 V 567 h -80 V 556 a 14 14 90 0 1 14 -14" fill="#a6dba0" stroke="#a6dba0" stroke-width="0"/>
	<path d="M 683 567.0 v 11 a 14 14 90 0 1 -14 14 H 617 a 14 14 90 0 1 -14 -14 V 567.0 H 80" fill="#d9f0d3" stroke="#d9f0d3" stroke-width="0"/>
	<rect x="603" y="542" width="80" height="50" fill="none" rx="14" stroke="#5aae61" stroke-width="2"/>
	<line x1="603" y1="567" x2="683" y2="567" stroke="#5aae61" stroke-width="1"/>
	<text x="610" y="559.7" fill="#000000" font-family="Verdana" font-size="12">commente</text>
</g>

<!-- Association hiérarchise -->
<path d="M273 111 C 318.666666667 77.6666666667 382.333333333 77.6666666667 464 111" fill="none" stroke="#5aae61" stroke-width="2"/>
<text x="344" y="104.0" fill="#762a83" font-family="Verdana" font-size="12">0,N</text>
<path d="M273 111 C 318.0 144.333333333 381.666666667 144.333333333 464 111" fill="none" stroke="#5aae61" stroke-width="2"/>
<text x="344" y="127.0" fill="#762a83" font-family="Verdana" font-size="12">1,1</text>
<g id="association-hiérarchise">
	<path d="M 491 86 a 14 14 90 0 1 14 14 V 111 h -82 V 100 a 14 14 90 0 1 14 -14" fill="#a6dba0" stroke="#a6dba0" stroke-width="0"/>
	<path d="M 505 111.0 v 11 a 14 14 90 0 1 -14 14 H 437 a 14 14 90 0 1 -14 -14 V 111.0 H 82" fill="#d9f0d3" stroke="#d9f0d3" stroke-width="0"/>
	<rect x="423" y="86" width="82" height="50" fill="none" rx="14" stroke="#5aae61" stroke-width="2"/>
	<line x1="423" y1="111" x2="505" y2="111" stroke="#5aae61" stroke-width="1"/>
	<text x="430" y="103.7" fill="#000000" font-family="Verdana" font-size="12">hiérarchise</text>
</g>

<!-- Association complète -->
<line x1="464" y1="339" x2="464" y2="567" stroke="#5aae61" stroke-width="2"/>
<text x="437.0" y="534" fill="#762a83" font-family="Verdana" font-size="12">0,N</text>
<line x1="464" y1="829" x2="464" y2="567" stroke="#5aae61" stroke-width="2"/>
<text x="469.0" y="779" fill="#762a83" font-family="Verdana" font-size="12">1,1</text>
<g id="association-complète">
	<path d="M 485 542 a 14 14 90 0 1 14 14 V 567 h -70 V 556 a 14 14 90 0 1 14 -14" fill="#a6dba0" stroke="#a6dba0" stroke-width="0"/>
	<path d="M 499 567.0 v 11 a 14 14 90 0 1 -14 14 H 443 a 14 14 90 0 1 -14 -14 V 567.0 H 70" fill="#d9f0d3" stroke="#d9f0d3" stroke-width="0"/>
	<rect x="429" y="542" width="70" height="50" fill="none" rx="14" stroke="#5aae61" stroke-width="2"/>
	<line x1="429" y1="567" x2="499" y2="567" stroke="#5aae61" stroke-width="1"/>
	<text x="436" y="559.7" fill="#000000" font-family="Verdana" font-size="12">complète</text>
</g>

<!-- Entity Utilisateur -->
<g id="entity-Utilisateur">
	<g id="frame-Utilisateur">
		<rect x="714" y="9" width="124" height="25" fill="#c2a5cf" stroke="#c2a5cf" stroke-width="0"/>
		<rect x="714" y="34.0" width="124" height="179" fill="#e7d4e8" stroke="#e7d4e8" stroke-width="0"/>
		<rect x="714" y="9" width="124" height="204" fill="none" stroke="#9970ab" stroke-width="2"/>
		<line x1="714" y1="34" x2="838" y2="34" stroke="#9970ab" stroke-width="1"/>
	</g>
	<text x="745" y="26.7" fill="#000000" font-family="Verdana" font-size="12">Utilisateur</text>
	<text x="719" y="51.7" fill="#000000" font-family="Verdana" font-size="12">id_utilisateur</text>
	<line x1="719" y1="54" x2="799" y2="54" stroke="#000000" stroke-width="1"/>
	<text x="719" y="68.7" fill="#000000" font-family="Verdana" font-size="12">identifiant</text>
	<text x="719" y="85.7" fill="#000000" font-family="Verdana" font-size="12">mot_de_passe</text>
	<text x="719" y="102.7" fill="#000000" font-family="Verdana" font-size="12">slug</text>
	<text x="719" y="119.8" fill="#000000" font-family="Verdana" font-size="12">email</text>
	<text x="719" y="136.8" fill="#000000" font-family="Verdana" font-size="12">url</text>
	<text x="719" y="153.8" fill="#000000" font-family="Verdana" font-size="12">date_d_inscription</text>
	<text x="719" y="170.8" fill="#000000" font-family="Verdana" font-size="12">statut</text>
	<text x="719" y="187.8" fill="#000000" font-family="Verdana" font-size="12">nom_d_affichage</text>
</g>

<!-- Entity Métadonnée_Commentaire -->
<g id="entity-Métadonnée_Commentaire">
	<g id="frame-Métadonnée_Commentaire">
		<rect x="837" y="787" width="192" height="25" fill="#c2a5cf" stroke="#c2a5cf" stroke-width="0"/>
		<rect x="837" y="812.0" width="192" height="59" fill="#e7d4e8" stroke="#e7d4e8" stroke-width="0"/>
		<rect x="837" y="787" width="192" height="84" fill="none" stroke="#9970ab" stroke-width="2"/>
		<line x1="837" y1="812" x2="1029" y2="812" stroke="#9970ab" stroke-width="1"/>
	</g>
	<text x="851" y="804.7" fill="#000000" font-family="Verdana" font-size="12">Métadonnée_Commentaire</text>
	<text x="842" y="829.8" fill="#000000" font-family="Verdana" font-size="12">id_métadonnée_commentaire</text>
	<line x1="842" y1="832" x2="1023" y2="832" stroke="#000000" stroke-width="1"/>
	<text x="842" y="846.8" fill="#000000" font-family="Verdana" font-size="12">clé</text>
	<text x="842" y="863.8" fill="#000000" font-family="Verdana" font-size="12">valeur</text>
</g>

<!-- Entity Option -->
<g id="entity-Option">
	<g id="frame-Option">
		<rect x="189" y="778" width="168" height="25" fill="#c2a5cf" stroke="#c2a5cf" stroke-width="0"/>
		<rect x="189" y="803.0" width="168" height="77" fill="#e7d4e8" stroke="#e7d4e8" stroke-width="0"/>
		<rect x="189" y="778" width="168" height="102" fill="none" stroke="#9970ab" stroke-width="2"/>
		<line x1="189" y1="803" x2="357" y2="803" stroke="#9970ab" stroke-width="1"/>
	</g>
	<text x="252" y="795.7" fill="#000000" font-family="Verdana" font-size="12">Option</text>
	<text x="194" y="820.7" fill="#000000" font-family="Verdana" font-size="12">id_option</text>
	<line x1="194" y1="823" x2="251" y2="823" stroke="#000000" stroke-width="1"/>
	<text x="194" y="837.8" fill="#000000" font-family="Verdana" font-size="12">nom</text>
	<text x="194" y="854.8" fill="#000000" font-family="Verdana" font-size="12">valeur</text>
	<text x="194" y="871.8" fill="#000000" font-family="Verdana" font-size="12">chargement_automatique</text>
</g>

<!-- Entity Commentaire -->
<g id="entity-Commentaire">
	<g id="frame-Commentaire">
		<rect x="719" y="457" width="114" height="25" fill="#c2a5cf" stroke="#c2a5cf" stroke-width="0"/>
		<rect x="719" y="482.0" width="114" height="195" fill="#e7d4e8" stroke="#e7d4e8" stroke-width="0"/>
		<rect x="719" y="457" width="114" height="220" fill="none" stroke="#9970ab" stroke-width="2"/>
		<line x1="719" y1="482" x2="833" y2="482" stroke="#9970ab" stroke-width="1"/>
	</g>
	<text x="735" y="474.7" fill="#000000" font-family="Verdana" font-size="12">Commentaire</text>
	<text x="724" y="499.7" fill="#000000" font-family="Verdana" font-size="12">id_commentaire</text>
	<line x1="724" y1="502" x2="823" y2="502" stroke="#000000" stroke-width="1"/>
	<text x="724" y="516.7" fill="#000000" font-family="Verdana" font-size="12">auteur</text>
	<text x="724" y="533.7" fill="#000000" font-family="Verdana" font-size="12">email_auteur</text>
	<text x="724" y="550.7" fill="#000000" font-family="Verdana" font-size="12">url_auteur</text>
	<text x="724" y="567.8" fill="#000000" font-family="Verdana" font-size="12">IP_auteur</text>
	<text x="724" y="584.8" fill="#000000" font-family="Verdana" font-size="12">date</text>
	<text x="724" y="601.8" fill="#000000" font-family="Verdana" font-size="12">contenu</text>
	<text x="724" y="618.8" fill="#000000" font-family="Verdana" font-size="12">karma</text>
	<text x="724" y="635.8" fill="#000000" font-family="Verdana" font-size="12">approuvé</text>
	<text x="724" y="652.8" fill="#000000" font-family="Verdana" font-size="12">agent_utilisateur</text>
	<text x="724" y="669.8" fill="#000000" font-family="Verdana" font-size="12">type</text>
</g>

<!-- Entity Lien -->
<g id="entity-Lien">
	<g id="frame-Lien">
		<rect x="571" y="702" width="144" height="25" fill="#c2a5cf" stroke="#c2a5cf" stroke-width="0"/>
		<rect x="571" y="727.0" width="144" height="229" fill="#e7d4e8" stroke="#e7d4e8" stroke-width="0"/>
		<rect x="571" y="702" width="144" height="254" fill="none" stroke="#9970ab" stroke-width="2"/>
		<line x1="571" y1="727" x2="715" y2="727" stroke="#9970ab" stroke-width="1"/>
	</g>
	<text x="630" y="719.7" fill="#000000" font-family="Verdana" font-size="12">Lien</text>
	<text x="576" y="744.7" fill="#000000" font-family="Verdana" font-size="12">id_lien</text>
	<line x1="576" y1="747" x2="617" y2="747" stroke="#000000" stroke-width="1"/>
	<text x="576" y="761.7" fill="#000000" font-family="Verdana" font-size="12">url</text>
	<text x="576" y="778.7" fill="#000000" font-family="Verdana" font-size="12">nom</text>
	<text x="576" y="795.7" fill="#000000" font-family="Verdana" font-size="12">image</text>
	<text x="576" y="812.7" fill="#000000" font-family="Verdana" font-size="12">cible</text>
	<text x="576" y="829.8" fill="#000000" font-family="Verdana" font-size="12">description</text>
	<text x="576" y="846.8" fill="#000000" font-family="Verdana" font-size="12">visibilité</text>
	<text x="576" y="863.8" fill="#000000" font-family="Verdana" font-size="12">propriétaire</text>
	<text x="576" y="880.8" fill="#000000" font-family="Verdana" font-size="12">note</text>
	<text x="576" y="897.8" fill="#000000" font-family="Verdana" font-size="12">date_de_mise_a_jour</text>
	<text x="576" y="914.8" fill="#000000" font-family="Verdana" font-size="12">relation</text>
	<text x="576" y="931.8" fill="#000000" font-family="Verdana" font-size="12">notes</text>
	<text x="576" y="948.8" fill="#000000" font-family="Verdana" font-size="12">rss</text>
</g>

<!-- Entity Terme -->
<g id="entity-Terme">
	<g id="frame-Terme">
		<rect x="50" y="288" width="66" height="25" fill="#c2a5cf" stroke="#c2a5cf" stroke-width="0"/>
		<rect x="50" y="313.0" width="66" height="77" fill="#e7d4e8" stroke="#e7d4e8" stroke-width="0"/>
		<rect x="50" y="288" width="66" height="102" fill="none" stroke="#9970ab" stroke-width="2"/>
		<line x1="50" y1="313" x2="116" y2="313" stroke="#9970ab" stroke-width="1"/>
	</g>
	<text x="63" y="305.7" fill="#000000" font-family="Verdana" font-size="12">Terme</text>
	<text x="55" y="330.7" fill="#000000" font-family="Verdana" font-size="12">id_terme</text>
	<line x1="55" y1="333" x2="110" y2="333" stroke="#000000" stroke-width="1"/>
	<text x="55" y="347.8" fill="#000000" font-family="Verdana" font-size="12">nom</text>
	<text x="55" y="364.8" fill="#000000" font-family="Verdana" font-size="12">slug</text>
	<text x="55" y="381.8" fill="#000000" font-family="Verdana" font-size="12">groupé</text>
</g>

<!-- Entity Métadonnée_Article -->
<g id="entity-Métadonnée_Article">
	<g id="frame-Métadonnée_Article">
		<rect x="389" y="787" width="150" height="25" fill="#c2a5cf" stroke="#c2a5cf" stroke-width="0"/>
		<rect x="389" y="812.0" width="150" height="59" fill="#e7d4e8" stroke="#e7d4e8" stroke-width="0"/>
		<rect x="389" y="787" width="150" height="84" fill="none" stroke="#9970ab" stroke-width="2"/>
		<line x1="389" y1="812" x2="539" y2="812" stroke="#9970ab" stroke-width="1"/>
	</g>
	<text x="404" y="804.7" fill="#000000" font-family="Verdana" font-size="12">Métadonnée_Article</text>
	<text x="394" y="829.8" fill="#000000" font-family="Verdana" font-size="12">id_métadonnée_article</text>
	<line x1="394" y1="832" x2="533" y2="832" stroke="#000000" stroke-width="1"/>
	<text x="394" y="846.8" fill="#000000" font-family="Verdana" font-size="12">clé</text>
	<text x="394" y="863.8" fill="#000000" font-family="Verdana" font-size="12">valeur</text>
</g>

<!-- Entity Métadonnée_Terme -->
<g id="entity-Métadonnée_Terme">
	<g id="frame-Métadonnée_Terme">
		<rect x="9" y="787" width="148" height="25" fill="#c2a5cf" stroke="#c2a5cf" stroke-width="0"/>
		<rect x="9" y="812.0" width="148" height="59" fill="#e7d4e8" stroke="#e7d4e8" stroke-width="0"/>
		<rect x="9" y="787" width="148" height="84" fill="none" stroke="#9970ab" stroke-width="2"/>
		<line x1="9" y1="812" x2="157" y2="812" stroke="#9970ab" stroke-width="1"/>
	</g>
	<text x="22" y="804.7" fill="#000000" font-family="Verdana" font-size="12">Métadonnée_Terme</text>
	<text x="14" y="829.8" fill="#000000" font-family="Verdana" font-size="12">id_métadonnée_terme</text>
	<line x1="14" y1="832" x2="152" y2="832" stroke="#000000" stroke-width="1"/>
	<text x="14" y="846.8" fill="#000000" font-family="Verdana" font-size="12">clé</text>
	<text x="14" y="863.8" fill="#000000" font-family="Verdana" font-size="12">valeur</text>
</g>

<!-- Entity Article -->
<g id="entity-Article">
	<g id="frame-Article">
		<rect x="381" y="161" width="166" height="25" fill="#c2a5cf" stroke="#c2a5cf" stroke-width="0"/>
		<rect x="381" y="186.0" width="166" height="331" fill="#e7d4e8" stroke="#e7d4e8" stroke-width="0"/>
		<rect x="381" y="161" width="166" height="356" fill="none" stroke="#9970ab" stroke-width="2"/>
		<line x1="381" y1="186" x2="547" y2="186" stroke="#9970ab" stroke-width="1"/>
	</g>
	<text x="444" y="178.7" fill="#000000" font-family="Verdana" font-size="12">Article</text>
	<text x="386" y="203.7" fill="#000000" font-family="Verdana" font-size="12">id_article</text>
	<line x1="386" y1="206" x2="442" y2="206" stroke="#000000" stroke-width="1"/>
	<text x="386" y="220.7" fill="#000000" font-family="Verdana" font-size="12">date_de_publication</text>
	<text x="386" y="237.7" fill="#000000" font-family="Verdana" font-size="12">contenu</text>
	<text x="386" y="254.7" fill="#000000" font-family="Verdana" font-size="12">titre</text>
	<text x="386" y="271.7" fill="#000000" font-family="Verdana" font-size="12">extrait</text>
	<text x="386" y="288.7" fill="#000000" font-family="Verdana" font-size="12">statut</text>
	<text x="386" y="305.7" fill="#000000" font-family="Verdana" font-size="12">statut_commentaire</text>
	<text x="386" y="322.7" fill="#000000" font-family="Verdana" font-size="12">statut_ping</text>
	<text x="386" y="339.8" fill="#000000" font-family="Verdana" font-size="12">mot_de_passe</text>
	<text x="386" y="356.8" fill="#000000" font-family="Verdana" font-size="12">slug</text>
	<text x="386" y="373.8" fill="#000000" font-family="Verdana" font-size="12">liste_url_à_ping</text>
	<text x="386" y="390.8" fill="#000000" font-family="Verdana" font-size="12">liste_url_pinguées</text>
	<text x="386" y="407.8" fill="#000000" font-family="Verdana" font-size="12">date_de_modification</text>
	<text x="386" y="424.8" fill="#000000" font-family="Verdana" font-size="12">contenu_filtre</text>
	<text x="386" y="441.8" fill="#000000" font-family="Verdana" font-size="12">identifiant_global_unique</text>
	<text x="386" y="458.8" fill="#000000" font-family="Verdana" font-size="12">ordre_menu</text>
	<text x="386" y="475.8" fill="#000000" font-family="Verdana" font-size="12">type_de_contenu</text>
	<text x="386" y="492.8" fill="#000000" font-family="Verdana" font-size="12">type_mime</text>
	<text x="386" y="509.8" fill="#000000" font-family="Verdana" font-size="12">nombre_de_commentaire</text>
</g>

<!-- Entity Taxinomie_Terme -->
<g id="entity-Taxinomie_Terme">
	<g id="frame-Taxinomie_Terme">
		<rect x="207" y="60" width="132" height="25" fill="#c2a5cf" stroke="#c2a5cf" stroke-width="0"/>
		<rect x="207" y="85.0" width="132" height="77" fill="#e7d4e8" stroke="#e7d4e8" stroke-width="0"/>
		<rect x="207" y="60" width="132" height="102" fill="none" stroke="#9970ab" stroke-width="2"/>
		<line x1="207" y1="85" x2="339" y2="85" stroke="#9970ab" stroke-width="1"/>
	</g>
	<text x="218" y="77.7" fill="#000000" font-family="Verdana" font-size="12">Taxinomie_Terme</text>
	<text x="212" y="102.7" fill="#000000" font-family="Verdana" font-size="12">id_taxinomie_terme</text>
	<line x1="212" y1="105" x2="334" y2="105" stroke="#000000" stroke-width="1"/>
	<text x="212" y="119.8" fill="#000000" font-family="Verdana" font-size="12">nom_taxinomie</text>
	<text x="212" y="136.8" fill="#000000" font-family="Verdana" font-size="12">description</text>
	<text x="212" y="153.8" fill="#000000" font-family="Verdana" font-size="12">nombre_contenus</text>
</g>

<!-- Entity Metadonnée_Utilisateur -->
<g id="entity-Metadonnée_Utilisateur">
	<g id="frame-Metadonnée_Utilisateur">
		<rect x="847" y="297" width="172" height="25" fill="#c2a5cf" stroke="#c2a5cf" stroke-width="0"/>
		<rect x="847" y="322.0" width="172" height="59" fill="#e7d4e8" stroke="#e7d4e8" stroke-width="0"/>
		<rect x="847" y="297" width="172" height="84" fill="none" stroke="#9970ab" stroke-width="2"/>
		<line x1="847" y1="322" x2="1019" y2="322" stroke="#9970ab" stroke-width="1"/>
	</g>
	<text x="861" y="314.7" fill="#000000" font-family="Verdana" font-size="12">Metadonnée_Utilisateur</text>
	<text x="852" y="339.8" fill="#000000" font-family="Verdana" font-size="12">id_métadonnée_utilisateur</text>
	<line x1="852" y1="342" x2="1014" y2="342" stroke="#000000" stroke-width="1"/>
	<text x="852" y="356.8" fill="#000000" font-family="Verdana" font-size="12">clé</text>
	<text x="852" y="373.8" fill="#000000" font-family="Verdana" font-size="12">valeur</text>
</g>
</svg>